<svg width="11" height="12" viewBox="0 0 11 12" fill="none" xmlns="http://www.w3.org/2000/svg">
<path d="M6 2.99995H5V5.99995H1C0.734784 5.99995 0.48043 5.8946 0.292893 5.70706C0.105357 5.51952 0 5.26517 0 4.99995V3.99995C0 3.73474 0.105357 3.48038 0.292893 3.29285C0.48043 3.10531 0.734784 2.99995 1 2.99995H2.268C2.01993 2.5704 1.94034 2.06398 2.04469 1.57904C2.14904 1.0941 2.42987 0.665238 2.83267 0.37573C3.23546 0.0862228 3.73147 -0.043271 4.22437 0.0123935C4.71728 0.068058 5.17192 0.304908 5.5 0.676954C5.82808 0.304908 6.28272 0.068058 6.77563 0.0123935C7.26853 -0.043271 7.76454 0.0862228 8.16733 0.37573C8.57013 0.665238 8.85096 1.0941 8.95531 1.57904C9.05966 2.06398 8.98007 2.5704 8.732 2.99995H10C10.2652 2.99995 10.5196 3.10531 10.7071 3.29285C10.8946 3.48038 11 3.73474 11 3.99995V4.99995C11 5.26517 10.8946 5.51952 10.7071 5.70706C10.5196 5.8946 10.2652 5.99995 10 5.99995H6V2.99995ZM3 1.99995C3 2.26517 3.10536 2.51952 3.29289 2.70706C3.48043 2.8946 3.73478 2.99995 4 2.99995H5V1.99995C5 1.73474 4.89464 1.48038 4.70711 1.29285C4.51957 1.10531 4.26522 0.999954 4 0.999954C3.73478 0.999954 3.48043 1.10531 3.29289 1.29285C3.10536 1.48038 3 1.73474 3 1.99995ZM6 2.99995H7C7.19778 2.99995 7.39112 2.94131 7.55557 2.83142C7.72002 2.72154 7.84819 2.56536 7.92388 2.38264C7.99957 2.19991 8.01937 1.99884 7.98079 1.80486C7.9422 1.61088 7.84696 1.4327 7.70711 1.29285C7.56725 1.15299 7.38907 1.05775 7.19509 1.01917C7.00111 0.980584 6.80004 1.00039 6.61732 1.07607C6.43459 1.15176 6.27841 1.27993 6.16853 1.44438C6.05865 1.60883 6 1.80217 6 1.99995V2.99995ZM10 6.99995H6V12H8C8.53043 12 9.03914 11.7892 9.41421 11.4142C9.78929 11.0391 10 10.5304 10 9.99995V6.99995ZM5 12V6.99995H1V9.99995C1 10.5304 1.21071 11.0391 1.58579 11.4142C1.96086 11.7892 2.46957 12 3 12H5Z" fill="#14B5B1"/>
</svg>
